<?xml version="1.0" encoding="iso-8859-1"?>
<!-- Generator: Adobe Illustrator 19.0.0, SVG Export Plug-In . SVG Version: 6.00 Build 0)  -->
<svg version="1.1" id="Layer_1" xmlns="http://www.w3.org/2000/svg" xmlns:xlink="http://www.w3.org/1999/xlink" x="0px" y="0px"
	 viewBox="0 0 512 512" style="enable-background:new 0 0 512 512;" xml:space="preserve">
<path style="fill:#1E0478;" d="M256,0c141.155,0,256,114.845,256,256S397.155,512,256,512S0,397.155,0,256S114.845,0,256,0z
	 M485.344,256c0-126.467-102.877-229.344-229.344-229.344S26.656,129.533,26.656,256S129.533,485.344,256,485.344
	S485.344,382.467,485.344,256z"/>
<path style="fill:#94E7EF;" d="M256,26.656c126.467,0,229.344,102.877,229.344,229.344S382.467,485.344,256,485.344
	S26.656,382.467,26.656,256S129.533,26.656,256,26.656z M419.385,256c0-57.656-30.907-111.66-80.66-140.915
	c-6.344-3.732-14.514-1.613-18.246,4.731s-1.613,14.514,4.731,18.246C366.86,162.559,392.73,207.74,392.73,256
	c0,75.395-61.334,136.73-136.73,136.73S119.27,331.395,119.27,256c0-48.26,25.869-93.441,67.519-117.938
	c6.344-3.732,8.463-11.902,4.731-18.246s-11.902-8.463-18.246-4.731C123.522,144.34,92.615,198.344,92.615,256
	c0,90.096,73.289,163.385,163.385,163.385S419.385,346.096,419.385,256z M269.328,256V88.163c0-7.37-5.971-13.328-13.328-13.328
	c-7.357,0-13.328,5.958-13.328,13.328V256c0,7.357,5.971,13.328,13.328,13.328C263.357,269.328,269.328,263.357,269.328,256z"/>
<g>
	<path style="fill:#1E0478;" d="M338.726,115.085c49.753,29.254,80.66,83.259,80.66,140.915
		c0,90.096-73.289,163.385-163.385,163.385S92.615,346.096,92.615,256c0-57.656,30.907-111.66,80.66-140.915
		c6.344-3.732,14.514-1.613,18.246,4.731s1.613,14.514-4.731,18.246C145.14,162.559,119.27,207.74,119.27,256
		c0,75.395,61.334,136.73,136.73,136.73S392.73,331.395,392.73,256c0-48.26-25.869-93.441-67.519-117.938
		c-6.344-3.732-8.463-11.902-4.731-18.246C324.212,113.473,332.382,111.354,338.726,115.085z"/>
	<path style="fill:#1E0478;" d="M269.328,88.163V256c0,7.357-5.971,13.328-13.328,13.328c-7.357,0-13.328-5.971-13.328-13.328
		V88.163c0-7.37,5.971-13.328,13.328-13.328C263.357,74.835,269.328,80.793,269.328,88.163z"/>
</g>
<g>
</g>
<g>
</g>
<g>
</g>
<g>
</g>
<g>
</g>
<g>
</g>
<g>
</g>
<g>
</g>
<g>
</g>
<g>
</g>
<g>
</g>
<g>
</g>
<g>
</g>
<g>
</g>
<g>
</g>
</svg>
